<svg xmlns="http://www.w3.org/2000/svg" viewBox="0 0 24 24" width="24" height="24">
  <path fill="#0077FF" d="M23.456 3.767C23.636 3.156 23.456 2.717 22.588 2.717h-2.956c-.65 0-.95.344-1.13.725 0 0-1.322 3.22-3.193 5.313-.606.605-.882.798-1.212.798-.166 0-.407-.193-.407-.804V3.767c0-.65-.188-.939-.73-.939H9.456c-.406 0-.65.301-.65.587 0 .616.921.758 1.016 2.491v3.764c0 .825-.149.975-.474.975-.882 0-3.028-3.238-4.3-6.944C4.812 3.11 4.574 2.717 3.92 2.717H.964C.228 2.717 0 3.061 0 3.442c0 .677.882 4.035 4.104 8.475C6.25 15.082 9.146 16.86 11.77 16.86c1.573 0 1.767-.353 1.767-.962v-2.65c0-.736.155-.883.674-.883.382 0 1.037.193 2.567 1.673 1.748 1.748 2.036 2.531 3.02 2.531h2.956c.736 0 1.104-.353.892-1.05-.232-.696-1.064-1.706-2.168-2.905-.599-.708-1.497-1.47-1.77-1.85-.382-.49-.273-.708 0-1.143 0 0 3.157-4.443 3.486-5.955z"/>
</svg>
